<svg xmlns="http://www.w3.org/2000/svg" width="97.469" height="56.428" viewBox="0 0 97.469 56.428">
  <defs>
    <style>
      .cls-1 {
        fill: #75d317;
      }

      .cls-2 {
        fill: rgba(117,211,23,0.65);
      }
    </style>
  </defs>
  <g id="Natura" transform="translate(-22.471 -558.072)">
    <path id="Icon_awesome-leaf" data-name="Icon awesome-leaf" class="cls-1" d="M57.264,1.018A1.631,1.631,0,0,0,54.3.892a17.979,17.979,0,0,1-15.716,9.174H30.193A20.135,20.135,0,0,0,10.063,30.2a20.73,20.73,0,0,0,.157,2.149c6.689-4.791,16.345-8.859,30.038-8.859a1.677,1.677,0,1,1,0,3.355C13.9,26.841,2.724,43,.25,49.068a3.36,3.36,0,0,0,6.217,2.548,27.583,27.583,0,0,1,7.538-9.5A20.085,20.085,0,0,0,32.342,50.21c16.46-1.2,28.046-15.957,28.046-34.032a38.125,38.125,0,0,0-3.124-15.16Z" transform="translate(59.552 558.074)"/>
    <path id="Icon_ionic-ios-leaf" data-name="Icon ionic-ios-leaf" class="cls-2" d="M45.931,37.495c-5.431-.839-5.84-1.227-5.84-1.227,1.636-7.758-2.348-15.842-8-20.507-7.528-6.207-18.966-1.7-27.878-11.134-2.076-2.2-.87,24.691,10.285,34.881A19.611,19.611,0,0,0,34.891,43.45,11.674,11.674,0,0,0,38.948,39.9a30.768,30.768,0,0,0,6.5,1.489C46.979,41.573,47.755,37.778,45.931,37.495Zm-9.625.776C28.16,35.828,21.072,29.778,16.48,25.039a.428.428,0,0,1,.577-.629A63.758,63.758,0,0,0,37.323,35.723,3.909,3.909,0,0,1,36.306,38.271Z" transform="translate(19.095 569.743)"/>
  </g>
</svg>
